<svg id="Flat" viewBox="0 0 64 64" xmlns="http://www.w3.org/2000/svg"><path d="m32 53c-.55 0-1-.45-1-1v-27.12c0-.55.45-1 1-1s1 .45 1 1v27.12c0 .55-.45 1-1 1z" fill="#d88852"/><path d="m32 61c-15.99 0-29-13.01-29-29s13.01-29 29-29 29 13.01 29 29-13.01 29-29 29zm0-56c-14.89 0-27 12.11-27 27s12.11 27 27 27 27-12.11 27-27-12.11-27-27-27z" fill="#e26677"/><g fill="#edae65"><path d="m35.5 18.7c0 2.78-1.38 5.23-3.5 6.7-2.13-1.47-3.5-3.92-3.5-6.7s1.38-5.23 3.5-6.7c2.13 1.47 3.5 3.92 3.5 6.7z"/><path d="m39.49 32.64c-2.25 1.63-5.05 1.95-7.49 1.09-.05-2.58 1.13-5.14 3.38-6.77s5.05-1.95 7.49-1.09c.05 2.58-1.13 5.14-3.38 6.77z"/><path d="m24.51 32.64c2.25 1.63 5.05 1.95 7.49 1.09.05-2.58-1.13-5.14-3.38-6.77s-5.05-1.95-7.49-1.09c-.05 2.58 1.13 5.14 3.38 6.77z"/><path d="m39.49 43.6c-2.25 1.63-5.05 1.95-7.49 1.09-.05-2.58 1.13-5.14 3.38-6.77s5.05-1.95 7.49-1.09c.05 2.58-1.13 5.14-3.38 6.77z"/><path d="m24.51 43.6c2.25 1.63 5.05 1.95 7.49 1.09.05-2.58-1.13-5.14-3.38-6.77s-5.05-1.95-7.49-1.09c-.05 2.58 1.13 5.14 3.38 6.77z"/></g><path d="m4 31h56v2h-56z" fill="#e26677" transform="matrix(.707 -.707 .707 .707 -13.25 32)"/></svg>