<svg id="Layer_3" enable-background="new 0 0 64 64" height="512" viewBox="0 0 64 64" width="512" xmlns="http://www.w3.org/2000/svg"><g><g><path d="m7 14.999h2v24.999h-2z" fill="#815643"/></g><path d="m28 51c0 7.18-4.477 11-10 11s-10-3.82-10-11 4.477-13 10-13 10 5.82 10 13z" fill="#d5cec2"/><path d="m21.684 38.922c-1.141-.588-2.382-.922-3.684-.922-5.523 0-10 5.82-10 13 0 4.344 1.645 7.449 4.164 9.232 6.061-2.897 10.259-9.066 10.259-16.232 0-1.765-.266-3.466-.739-5.078z" fill="#e7e4dd"/><path d="m13.803 61.151c-3.356.141-6.754-1.577-9.293-5.57-3.852-6.059-3.197-13.372 1.463-16.336 2.461-1.565 5.546-1.604 8.477-.4l-.001-.001c-3.769 1.861-6.449 6.602-6.449 12.156 0 5.228 2.374 8.675 5.797 10.163z" fill="#cbc3b6"/><path d="m55 25.412v-13.412c0-5.523-4.477-10-10-10-5.523 0-10 4.477-10 10v13.411c0 3.253-1.158 6.384-3.209 8.909-2.682 3.302-4.151 7.625-3.716 12.304.772 8.29 7.685 14.911 16 15.352 9.809.519 17.925-7.281 17.925-16.976 0-4.085-1.447-7.827-3.852-10.754-2.044-2.488-3.148-5.614-3.148-8.834z" fill="#78b75b"/><path d="m50.423 25c0-8.677-3.459-16.541-9.066-22.305-3.719 1.457-6.357 5.069-6.357 9.305v13.411c0 3.253-1.158 6.384-3.209 8.909-2.682 3.302-4.151 7.625-3.716 12.304.268 2.882 1.292 5.553 2.845 7.842 11.463-4.868 19.503-16.228 19.503-29.466z" fill="#96cc7f"/><circle cx="45" cy="45" fill="#c16b3f" r="9"/><path d="m48.241 36.611c-1.007-.389-2.097-.611-3.241-.611-4.971 0-9 4.029-9 9 0 2.043.689 3.922 1.836 5.432 4.627-3.537 8.256-8.307 10.405-13.821z" fill="#e39854"/><path d="m31.116 35.213c-.602-2.508-1.864-4.818-3.704-6.659l-9.483-9.483c-3.905-3.905-3.905-10.237 0-14.142 3.905-3.905 10.237-3.905 14.142 0l3.563 3.563-.001-.001c-.409 1.092-.633 2.274-.633 3.509v13.411c0 3.253-1.158 6.384-3.209 8.909-.235.289-.461.587-.677.891z" fill="#78b75b"/><circle cx="18" cy="52" fill="#f2c351" r="6"/><g><path d="m51.999 44.998h-2c0-2.757-2.243-4.999-5-4.999v-2c3.86 0 7 3.14 7 6.999z" fill="#fadfb2"/></g><g><path d="m52.999 11.998h-2c0-3.308-2.691-5.999-5.999-5.999v-2c4.411 0 7.999 3.588 7.999 7.999z" fill="#669e4f"/></g><g><path d="m29.192 7.757c-2.339-2.34-6.146-2.34-8.485 0l-1.415-1.415c3.12-3.117 8.194-3.119 11.314 0z" fill="#96cc7f"/></g><path d="m8 26c-3.314 0-6-2.686-6-6v-2c3.314 0 6 2.686 6 6z" fill="#976947"/><path d="m8 26c3.314 0 6-2.686 6-6v-2c-3.314 0-6 2.686-6 6z" fill="#c18e59"/><path d="m8 35c-3.314 0-6-2.686-6-6v-2c3.314 0 6 2.686 6 6z" fill="#976947"/><path d="m8 35c3.314 0 6-2.686 6-6v-2c-3.314 0-6 2.686-6 6z" fill="#c18e59"/><path d="m7.575 17c-2.099-2.209-2.099-5.791 0-8l2.851-3c2.099 2.209 2.099 5.791 0 8z" fill="#c18e59"/><path d="m20 35h-4c0-2.209 1.791-4 4-4h4c0 2.209-1.791 4-4 4z" fill="#976947"/><path d="m18 46c-3.314 0-6 2.686-6 6 0 2.647 1.717 4.89 4.096 5.686 2.999-2.56 5.153-6.081 5.966-10.093-1.069-.986-2.493-1.593-4.062-1.593z" fill="#f7d881"/></g></svg>