<?xml version="1.0" standalone="no"?>
<!DOCTYPE svg PUBLIC "-//W3C//DTD SVG 20010904//EN"
 "http://www.w3.org/TR/2001/REC-SVG-20010904/DTD/svg10.dtd">
<svg version="1.0" xmlns="http://www.w3.org/2000/svg"
 width="200.000000pt" height="200.000000pt" viewBox="0 0 200.000000 200.000000"
 preserveAspectRatio="xMidYMid meet">

<g transform="translate(0.000000,200.000000) scale(0.100000,-0.100000)"
fill="#000000" stroke="none">
<path d="M845 1824 c-159 -33 -293 -134 -355 -266 -43 -92 -75 -251 -61 -299
18 -59 14 -73 -49 -166 -48 -69 -60 -96 -60 -126 0 -49 13 -73 50 -92 27 -14
28 -17 18 -46 -7 -22 -7 -37 0 -55 7 -13 9 -30 6 -38 -3 -9 1 -30 10 -47 11
-22 15 -48 11 -78 -7 -62 12 -111 53 -134 28 -17 52 -19 148 -19 l115 2 10
-27 c19 -50 13 -159 -12 -202 -25 -45 -20 -74 13 -69 15 2 32 19 48 48 44 79
30 258 -23 295 -16 11 -50 15 -137 15 -78 0 -122 4 -132 13 -12 8 -18 35 -22
92 -8 107 -11 137 -21 158 -4 10 -3 36 4 56 16 56 15 60 -34 81 -59 25 -59 49
-1 128 24 33 51 74 60 90 18 34 21 98 7 134 -12 32 22 186 59 265 78 169 268
254 535 240 61 -4 131 -13 157 -21 141 -44 262 -140 316 -249 106 -215 74
-451 -96 -710 -74 -113 -83 -160 -61 -297 12 -77 73 -264 100 -309 20 -33 53
-41 63 -15 3 8 -3 32 -13 52 -33 65 -82 234 -91 311 -11 96 -4 130 36 194 76
120 108 183 142 275 35 95 36 100 36 237 0 127 -3 147 -27 214 -15 41 -41 96
-58 122 -69 108 -208 202 -355 239 -94 24 -282 26 -389 4z"/>
<path d="M1006 1626 c-52 -63 -76 -131 -76 -216 l0 -69 -57 27 c-49 23 -71 27
-145 27 -105 0 -116 -7 -100 -64 45 -149 209 -250 363 -225 41 7 78 7 104 2
57 -14 136 -3 199 25 92 42 172 140 178 218 3 29 0 33 -32 42 -61 16 -161 3
-221 -29 l-54 -29 0 80 c-1 96 -26 163 -84 219 l-38 38 -37 -46z m76 -99 c31
-61 31 -165 0 -229 -13 -27 -28 -48 -33 -48 -5 0 -19 19 -31 43 -32 61 -32
174 0 240 13 26 28 44 33 41 5 -3 19 -24 31 -47z m-219 -225 c53 -29 123 -114
111 -134 -10 -16 -101 0 -154 27 -53 27 -120 98 -120 128 0 18 5 19 56 14 33
-3 75 -17 107 -35z m537 24 c0 -30 -67 -101 -121 -129 -58 -30 -148 -42 -156
-21 -6 17 58 95 96 118 75 44 181 62 181 32z"/>
</g>
</svg>
