<svg id="Artboard_30" enable-background="new 0 0 64 64" height="512" viewBox="0 0 64 64" width="512" xmlns="http://www.w3.org/2000/svg"><g><g><path d="m4 51v4c0 2.209 1.791 4 4 4h28c2.209 0 4-1.791 4-4v-4z" fill="#77553c"/><path d="m4 47v4c0 2.209 1.791 4 4 4h28c2.209 0 4-1.791 4-4v-4z" fill="#9e7150"/><path d="m32 51h4c2.209 0 4-1.791 4-4v-28s1.629-4.446 1.629-4.446c.373-.889.467-1.861.27-2.8-.425-2.025-2.131-3.584-4.274-3.906l-9.009-1.354c-4.386-.659-8.847-.659-13.233 0l-9.009 1.354c-2.143.322-3.848 1.881-4.274 3.906-.197.938-.103 1.911.27 2.8l1.63 4.446v28c0 2.209 1.791 4 4 4h22z" fill="#e7c192"/><path d="m37.626 7.848-9.009-1.354c-4.386-.659-8.847-.659-13.233 0l-9.01 1.354c-.403.061-.783.178-1.15.32 1.942 18.266 16.488 32.766 34.776 34.629v-23.797l1.629-4.446c.373-.889.467-1.861.27-2.8-.425-2.025-2.13-3.583-4.273-3.906z" fill="#fdddb6"/><g><path d="m15.384 6.494-9.01 1.354c-2.143.322-3.848 1.881-4.274 3.906-.197.938-.103 1.911.27 2.8l1.63 4.446v28c0 2.209 1.791 4 4 4h3c-2.209 0-4-1.791-4-4v-28l-1.629-4.446c-.373-.889-.467-1.861-.27-2.8.425-2.025 2.131-3.583 4.274-3.906l9.009-1.354c1.697-.255 3.405-.409 5.116-.466-2.711-.092-5.428.062-8.116.466z" fill="#d2976a"/></g><path d="m53 41 3.414-3.414c.375-.376.884-.586 1.414-.586h4.172l-2.4 3.2c-.378.503-.97.8-1.6.8z" fill="#ffc239"/><path d="m53 41-3.414-3.414c-.375-.376-.884-.586-1.414-.586h-4.172l2.4 3.2c.378.504.97.8 1.6.8z" fill="#ffc239"/><path d="m53 48 3.414-3.414c.375-.376.884-.586 1.414-.586h4.172l-2.4 3.2c-.378.503-.97.8-1.6.8z" fill="#e29d13"/><path d="m53 48-3.414-3.414c-.375-.376-.884-.586-1.414-.586h-4.172l2.4 3.2c.378.504.97.8 1.6.8z" fill="#e29d13"/><path d="m53 34 3.414-3.414c.375-.376.884-.586 1.414-.586h4.172l-2.4 3.2c-.378.503-.97.8-1.6.8z" fill="#ffc239"/><path d="m53 34-3.414-3.414c-.375-.376-.884-.586-1.414-.586h-4.172l2.4 3.2c.378.504.97.8 1.6.8z" fill="#ffc239"/><path d="m53 27 3.414-3.414c.375-.376.884-.586 1.414-.586h4.172l-2.4 3.2c-.378.503-.97.8-1.6.8z" fill="#ffd55d"/><path d="m53 27-3.414-3.414c-.375-.376-.884-.586-1.414-.586h-4.172l2.4 3.2c.378.504.97.8 1.6.8z" fill="#ffd55d"/><path d="m53 20 3.414-3.414c.375-.376.884-.586 1.414-.586h4.172l-2.4 3.2c-.378.503-.97.8-1.6.8z" fill="#ffe078"/><path d="m53 20-3.414-3.414c-.375-.376-.884-.586-1.414-.586h-4.172l2.4 3.2c.378.504.97.8 1.6.8z" fill="#ffe078"/><path d="m51 13 .757-4.03c.143-.57.655-.97 1.243-.97.588 0 1.1.4 1.243.97l.757 4.03-2 2z" fill="#ffd55d"/><g><path d="m9.172 17.561c-.844-1.247-.841-2.906.006-4.13.903-1.304 2.599-1.874 4.127-1.383l-.61 1.904c-.697-.225-1.467.031-1.873.617-.381.55-.379 1.302.006 1.87z" fill="#d2976a"/></g><g><path d="m33.578 20.039c-1.569 0-3.054-1.118-3.537-2.756l1.918-.565c.254.862 1.088 1.451 1.856 1.3.563-.106 1.052-.613 1.215-1.261l1.939.488c-.356 1.412-1.449 2.487-2.785 2.739-.201.037-.404.055-.606.055z" fill="#d2976a"/></g><g><path d="m22.283 32.439-.565-1.918c.862-.254 1.445-1.087 1.3-1.856-.106-.563-.613-1.052-1.261-1.215l.488-1.939c1.412.356 2.487 1.449 2.739 2.785.334 1.778-.852 3.598-2.701 4.143z" fill="#d2976a"/></g><g><path d="m19.492 46.459c-.726 0-1.448-.212-2.062-.637-1.303-.903-1.872-2.6-1.383-4.127l1.904.61c-.223.696.031 1.467.617 1.873.55.381 1.302.378 1.87-.006l1.121 1.656c-.62.421-1.345.631-2.067.631z" fill="#d2976a"/></g><g><path d="m32.757 39.108c-.346 0-.694-.048-1.037-.148-1.717-.5-2.859-2.197-2.717-4.037l1.994.154c-.07.901.47 1.726 1.282 1.963.687.2 1.464-.068 1.939-.664l1.562 1.248c-.76.954-1.877 1.484-3.023 1.484z" fill="#d2976a"/></g><g><path d="m30 26h2v2h-2z" fill="#d2976a"/></g><g><path d="m10 24h2v2h-2z" fill="#d2976a"/></g><g><path d="m8 40h2v2h-2z" fill="#d2976a"/></g><g><path d="m29 44h2v2h-2z" fill="#d2976a"/></g><g><path d="m21 12h2v2h-2z" fill="#d2976a"/></g><g><path d="m12.412 35.438c-.428 0-.855-.068-1.266-.207-.967-.326-1.722-1.001-2.071-1.851-.569-1.389-.034-3.101 1.303-4.163l1.244 1.565c-.71.565-.89 1.369-.697 1.838.126.309.448.576.86.715.554.188 1.175.115 1.709-.198l1.012 1.725c-.649.381-1.373.576-2.094.576z" fill="#d2976a"/></g></g><g><path d="m58 28c.939 0 1.836-.448 2.4-1.2l2.4-3.2c.228-.303.264-.708.095-1.047s-.516-.553-.895-.553h-4.171c-.801 0-1.555.312-2.122.879l-1.707 1.707v-3.586h4c.939 0 1.836-.448 2.4-1.2l2.4-3.2c.228-.303.264-.708.095-1.047s-.516-.553-.895-.553h-4.171c-.801 0-1.555.312-2.122.879l-1.707 1.707v-2.172l5.707-5.707-1.414-1.414-2.661 2.661-.419-2.226c-.255-1.018-1.165-1.728-2.213-1.728s-1.958.71-2.226 1.786l-.407 2.167-2.66-2.66-1.414 1.414 5.707 5.707v2.172l-1.707-1.707c-.566-.567-1.32-.879-2.122-.879h-4.171c-.379 0-.725.214-.895.553s-.132.744.095 1.047l2.4 3.201c.564.751 1.461 1.199 2.4 1.199h4v3.586l-1.707-1.707c-.566-.567-1.32-.879-2.122-.879h-4.171c-.379 0-.725.214-.895.553s-.132.744.095 1.047l2.4 3.201c.564.751 1.461 1.199 2.4 1.199h4v3.586l-1.707-1.707c-.566-.567-1.32-.879-2.122-.879h-4.171c-.379 0-.725.214-.895.553s-.132.744.095 1.047l2.4 3.201c.564.751 1.461 1.199 2.4 1.199h4v3.586l-1.707-1.707c-.566-.567-1.32-.879-2.122-.879h-4.171c-.379 0-.725.214-.895.553s-.132.744.095 1.047l2.4 3.201c.564.751 1.461 1.199 2.4 1.199h4v3.586l-1.707-1.707c-.566-.567-1.32-.879-2.122-.879h-4.171c-.379 0-.725.214-.895.553s-.132.744.095 1.047l2.4 3.201c.564.751 1.461 1.199 2.4 1.199h4v11h2v-11h4c.939 0 1.836-.448 2.4-1.2l2.4-3.2c.228-.303.264-.708.095-1.047s-.516-.553-.895-.553h-4.171c-.801 0-1.555.312-2.122.879l-1.707 1.707v-3.586h4c.939 0 1.836-.448 2.4-1.2l2.4-3.2c.228-.303.264-.708.095-1.047s-.516-.553-.895-.553h-4.171c-.801 0-1.555.312-2.122.879l-1.707 1.707v-3.586h4c.939 0 1.836-.448 2.4-1.2l2.4-3.2c.228-.303.264-.708.095-1.047s-.516-.553-.895-.553h-4.171c-.801 0-1.555.312-2.122.879l-1.707 1.707v-3.586zm-.879-3.707c.189-.189.441-.293.708-.293h2.171l-1.2 1.6c-.188.251-.487.4-.8.4h-2.586zm0-7c.189-.189.441-.293.708-.293h2.171l-1.2 1.6c-.188.251-.487.4-.8.4h-2.586zm-9.121 1.707c-.313 0-.612-.149-.8-.4l-1.2-1.6h2.171c.267 0 .519.104.708.293l1.707 1.707zm0 7c-.313 0-.612-.149-.8-.4l-1.2-1.6h2.171c.267 0 .519.104.708.293l1.707 1.707zm0 7c-.313 0-.612-.149-.8-.4l-1.2-1.6h2.171c.267 0 .519.104.708.293l1.707 1.707zm0 7c-.313 0-.612-.149-.8-.4l-1.2-1.6h2.171c.267 0 .519.104.708.293l1.707 1.707zm0 7c-.313 0-.612-.149-.8-.4l-1.2-1.6h2.171c.267 0 .519.104.708.293l1.707 1.707zm9.121-1.707c.189-.189.441-.293.708-.293h2.171l-1.2 1.6c-.188.251-.487.4-.8.4h-2.586zm0-7c.189-.189.441-.293.708-.293h2.171l-1.2 1.6c-.188.251-.487.4-.8.4h-2.586zm0-7c.189-.189.441-.293.708-.293h2.171l-1.2 1.6c-.188.251-.487.4-.8.4h-2.586zm-4.393-22.08c.062-.251.495-.193.532-.058l.66 3.511-.92.92-.92-.92z"/><path d="m37.774 6.86-9.009-1.354c-4.49-.676-9.041-.676-13.53 0l-9.01 1.354c-2.543.382-4.595 2.267-5.103 4.689-.24 1.141-.127 2.314.31 3.35l1.568 4.279v27.822 4 4c0 2.757 2.243 5 5 5h28c2.757 0 5-2.243 5-5v-4-4-27.823l1.551-4.235c.454-1.079.566-2.252.327-3.393-.508-2.422-2.56-4.307-5.104-4.689zm-1.774 51.14h-28c-1.654 0-3-1.346-3-3v-.026c.838.635 1.87 1.026 3 1.026h28c1.13 0 2.162-.391 3-1.026v.026c0 1.654-1.346 3-3 3zm0-4h-28c-1.654 0-3-1.346-3-3v-.026c.838.635 1.87 1.026 3 1.026h28c1.13 0 2.162-.391 3-1.026v.026c0 1.654-1.346 3-3 3zm0-4h-28c-1.654 0-3-1.346-3-3v-28c0-.117-.021-.234-.061-.344l-1.646-4.489c-.295-.702-.369-1.465-.213-2.207.338-1.609 1.722-2.863 3.443-3.123l9.01-1.354c2.145-.322 4.306-.483 6.467-.483s4.322.161 6.468.484l9.009 1.354c1.722.259 3.106 1.514 3.444 3.123.156.741.082 1.504-.23 2.25l-1.629 4.446c-.041.109-.062.226-.062.343v28c0 1.654-1.346 3-3 3z"/><path d="m10.828 16.439c-.385-.568-.387-1.32-.006-1.87.406-.587 1.178-.84 1.874-.617l.609-1.905c-1.526-.488-3.224.081-4.127 1.383-.847 1.224-.85 2.883-.006 4.13z"/><path d="m33.815 18.017c-.768.151-1.602-.438-1.856-1.3l-1.918.565c.483 1.639 1.968 2.757 3.537 2.757.201 0 .404-.019.606-.057 1.336-.251 2.429-1.326 2.785-2.739l-1.939-.488c-.163.649-.652 1.156-1.215 1.262z"/><path d="m22.244 25.511-.488 1.939c.648.164 1.155.652 1.261 1.215.145.77-.438 1.602-1.3 1.855l.565 1.919c1.849-.545 3.035-2.366 2.7-4.145-.251-1.335-1.326-2.427-2.738-2.783z"/><path d="m18.569 44.178c-.586-.406-.84-1.176-.617-1.873l-1.904-.609c-.489 1.527.08 3.224 1.382 4.126.613.425 1.336.638 2.062.638.722 0 1.447-.21 2.068-.631l-1.121-1.656c-.568.384-1.32.387-1.87.005z"/><path d="m32.279 37.04c-.812-.237-1.352-1.062-1.282-1.963l-1.994-.154c-.142 1.84 1.001 3.538 2.717 4.037.342.1.691.148 1.037.148 1.146 0 2.263-.53 3.024-1.484l-1.562-1.248c-.476.596-1.253.863-1.94.664z"/><path d="m30 26h2v2h-2z"/><path d="m10 24h2v2h-2z"/><path d="m8 40h2v2h-2z"/><path d="m29 44h2v2h-2z"/><path d="m21 12h2v2h-2z"/><path d="m11.785 33.336c-.412-.139-.733-.406-.86-.716-.193-.469-.014-1.272.697-1.837l-1.244-1.565c-1.337 1.062-1.873 2.774-1.303 4.162.349.851 1.104 1.525 2.071 1.852.41.139.837.207 1.265.207.722 0 1.446-.195 2.095-.576l-1.013-1.725c-.531.312-1.153.386-1.708.198z"/></g></g></svg>