<svg enable-background="new 0 0 512 512" height="512" viewBox="0 0 512 512" width="512" xmlns="http://www.w3.org/2000/svg"><g id="_x34_3_Burger"><g><g><path d="m251.272 258.879h-48.785v-125.77c0-5.851 4.743-10.595 10.595-10.595h27.596c5.851 0 10.595 4.743 10.595 10.595v125.77z" fill="#ffd15b"/><path d="m56.131 258.879h-48.785v-144.577c0-5.851 4.743-10.595 10.595-10.595h27.596c5.851 0 10.595 4.743 10.595 10.595v144.577z" fill="#ffd15b"/><path d="m104.917 298.897h-48.786v-211.072c0-5.851 4.743-10.595 10.595-10.595h27.596c5.851 0 10.595 4.743 10.595 10.595z" fill="#ffd15b"/><path d="m153.702 298.897h-48.785v-251.475c0-5.851 4.743-10.595 10.595-10.595h27.596c5.851 0 10.595 4.743 10.595 10.595v251.475z" fill="#ffd15b"/><path d="m202.487 298.897h-48.785v-211.072c0-5.851 4.743-10.595 10.595-10.595h27.596c5.851 0 10.595 4.743 10.595 10.595v211.072z" fill="#ffd15b"/><g fill="#ffc344"><path d="m251.272 153.76v105.12h-48.79v-62.02c9.98-12.45 21.49-23.66 34.21-33.2 4.741-3.55 9.6-6.85 14.58-9.9z"/><path d="m56.132 114.3v144.58h-24.39v-144.58c0-5.85-4.75-10.59-10.6-10.59h24.39c5.86 0 10.6 4.74 10.6 10.59z"/><path d="m104.912 87.82v211.08h-24.39v-211.08c0-5.85-4.74-10.59-10.59-10.59h24.39c5.851 0 10.59 4.74 10.59 10.59z"/><path d="m153.703 47.42v251.48h-24.39v-251.48c0-5.85-4.75-10.59-10.6-10.59h24.39c5.859 0 10.6 4.74 10.6 10.59z"/><path d="m202.482 87.82v211.08h-24.39v-211.08c0-5.85-4.74-10.59-10.59-10.59h24.39c5.85 0 10.59 4.74 10.59 10.59z"/><path d="m202.482 196.86v102.04h-16.34v-4.88c-.37-.2-.75-.42-1.11-.64-3.87-2.3-7.28-5.4-9.97-9.16-6.17-8.62-7.81-19.75-4.38-29.78 7.11-20.78 17.991-40.36 31.8-57.58z"/><path d="m251.272 133.11v125.77h-24.39v-125.77c0-5.85-4.75-10.6-10.6-10.6h24.4c5.85 0 10.59 4.75 10.59 10.6z"/></g><path d="m200.173 265.21-14.657 27.357c-2.088 3.898-6.151 6.33-10.573 6.33h-91.268c-4.422 0-8.485-2.433-10.573-6.33l-14.656-27.357c-2.088-3.898-6.151-6.33-10.573-6.33h-40.527l18.018 205.347c.544 6.194 5.731 10.946 11.949 10.946h183.991c6.218 0 11.405-4.752 11.949-10.946l18.018-205.347h-40.527c-4.42-.001-8.483 2.432-10.571 6.33z" fill="#e94444"/><path d="m251.272 258.88-18.02 205.35c-.54 6.19-5.73 10.94-11.95 10.94h-26.16c-10.95-9.49-19.39-21.95-24.04-36.45-1.69-5.27-3.02-10.63-3.95-15.9-1.54-8.73.85-17.64 6.56-24.44 3.2-3.81 7.23-6.72 11.72-8.54v-16.94c-9.04-9.01-14.3-21.33-14.3-34.55 0-12.77 5.85-24.2 15.01-31.74v-12.59c-.37-.2-.75-.42-1.11-.64.17-.26.33-.53.48-.81l14.66-27.36c.62-1.14 1.4-2.16 2.31-3.02 2.19-2.1 5.14-3.31 8.26-3.31z" fill="#ca2c2c"/><path d="m251.272 258.88-18.02 205.35c-.54 6.19-5.73 10.94-11.95 10.94h-41.88c6.21 0 11.4-4.75 11.94-10.94l18.01-205.27c.45-.05.91-.08 1.37-.08z" fill="#ca2c2c"/><path d="m475.797 317.235h-260.246c-5.194 0-9.405-4.211-9.405-9.405v-20.391c0-5.194 4.211-9.405 9.405-9.405h260.246c5.194 0 9.405 4.211 9.405 9.405v20.391c.001 5.194-4.21 9.405-9.405 9.405z" fill="#e94444"/><path d="m485.203 287.437v20.39c0 5.2-4.21 9.41-9.41 9.41h-40.64c5.2 0 9.41-4.21 9.41-9.41v-20.39c0-5.19-4.21-9.4-9.41-9.4h40.64c5.199 0 9.41 4.21 9.41 9.4z" fill="#ca2c2c"/><path d="m470.182 407.646h-249.017c-8.69 0-15.734-7.044-15.734-15.734v-21.604c0-8.69 7.044-15.734 15.734-15.734h249.018c8.69 0 15.734 7.044 15.734 15.734v21.604c0 8.689-7.045 15.734-15.735 15.734z" fill="#935b44"/><path d="m485.913 370.307v21.6c0 8.69-7.04 15.74-15.73 15.74h-40.9c8.69 0 15.73-7.05 15.73-15.74v-21.6c0-8.69-7.04-15.73-15.73-15.73h40.9c8.689 0 15.73 7.04 15.73 15.73z" fill="#87523e"/><path d="m201.899 278.034c-8.873 0-15.164-8.724-12.293-17.12 22.212-64.96 83.49-113.779 155.606-113.779 73.221 0 135.27 47.836 156.599 113.961 2.699 8.368-3.559 16.938-12.351 16.938z" fill="#f6a96c"/><path d="m489.462 278.037h-24.78c.74-2.42.79-5.09-.07-7.75-21.33-66.12-83.38-113.96-156.6-113.96-6.46 0-12.84.39-19.11 1.16 17.56-6.68 36.53-10.35 56.31-10.35 73.22 0 135.27 47.83 156.6 113.96 2.7 8.37-3.56 16.94-12.35 16.94z" fill="#ea9b58"/><path d="m494.621 407.647h-297.893c-6.208 0-10.956 5.591-9.879 11.705.661 3.756 1.692 8.254 3.298 13.252 8.187 25.479 32.148 42.569 58.91 42.569h193.235c26.762 0 50.723-17.09 58.91-42.569 1.606-4.998 2.637-9.496 3.298-13.252 1.077-6.114-3.672-11.705-9.879-11.705z" fill="#f6a96c"/><path d="m504.502 419.35c-.66 3.76-1.69 8.26-3.3 13.25-8.19 25.48-32.15 42.57-58.91 42.57h-44.48c26.77 0 50.73-17.09 58.91-42.57 1.61-4.99 2.64-9.49 3.3-13.25 1.08-6.11-3.67-11.7-9.88-11.7h44.48c6.21 0 10.95 5.59 9.88 11.7z" fill="#ea9b58"/><path d="m191.136 338.347c0 15.927 12.911 28.838 28.838 28.838h.089-.094c20.947 0 20.947-11.391 41.895-11.391 20.95 0 20.95 11.391 41.9 11.391s20.95-11.391 41.9-11.391c20.951 0 20.951 11.391 41.902 11.391 20.95 0 20.95-11.391 41.901-11.391 20.953 0 20.953 11.391 41.907 11.391 15.927 0 28.838-12.911 28.838-28.838 0-11.66-9.452-21.112-21.112-21.112h-266.853c-11.659 0-21.111 9.452-21.111 21.112z" fill="#7acaa6"/><path d="m500.212 338.347c0 7.97-3.23 15.17-8.45 20.39s-12.42 8.45-20.39 8.45c-13.38 0-18.21-4.64-25.42-8 1.09-.81 2.12-1.71 3.08-2.67 5.22-5.22 8.45-12.43 8.45-20.39 0-5.83-2.36-11.11-6.18-14.93-1.6-1.6-3.46-2.94-5.5-3.96h33.3c5.83 0 11.11 2.36 14.93 6.18s6.18 9.1 6.18 14.93z" fill="#57be92"/><path d="m264.696 278.034 73.777 52.164c4.316 3.051 10.086 3.051 14.402 0l73.777-52.164z" fill="#ffd15b"/><path d="m426.652 278.037-73.78 52.16c-4.31 3.05-10.08 3.05-14.4 0l-16.21-11.46c.96-.36 1.89-.85 2.76-1.47l55.49-39.23z" fill="#ffc344"/></g><path d="m508.061 406.413c-3.343-3.982-8.241-6.267-13.439-6.267h-2.711c.974-2.561 1.507-5.337 1.507-8.235v-21.604c0-.993-.062-1.977-.185-2.95 8.789-6.639 14.479-17.173 14.479-29.011 0-11.154-6.416-20.838-15.752-25.555.483-1.57.743-3.236.743-4.962v-20.392c0-.723-.046-1.436-.134-2.135 5.379-.805 10.168-3.693 13.448-8.197 3.894-5.348 4.963-12.022 2.934-18.313-9.948-30.841-28.411-58.195-53.393-79.107-3.178-2.659-7.906-2.238-10.565.937-2.659 3.177-2.239 7.906.937 10.565 22.811 19.095 39.667 44.064 48.746 72.211.54 1.674.254 3.452-.784 4.879-1.044 1.434-2.659 2.256-4.43 2.256h-287.563c-1.795 0-3.425-.839-4.471-2.303-1.031-1.442-1.296-3.225-.726-4.89 10.474-30.631 30.536-58.217 56.491-77.676 27.078-20.3 58.897-31.03 92.019-31.03 25.273 0 50.388 6.145 72.628 17.77 3.67 1.92 8.202.5 10.121-3.172 1.919-3.671.499-8.202-3.172-10.121-24.377-12.742-51.894-19.477-79.577-19.477-30.593 0-60.154 8.316-86.439 24.193v-30.718c0-9.978-8.117-18.095-18.095-18.095h-27.596c-1.055 0-2.089.091-3.095.265v-27.455c0-9.978-8.117-18.095-18.095-18.095h-27.596c-1.055 0-2.089.091-3.095.265v-22.571c0-9.978-8.117-18.096-18.095-18.096h-27.596c-9.978 0-18.095 8.118-18.095 18.096v22.572c-1.006-.174-2.04-.265-3.095-.265h-27.594c-9.978 0-18.095 8.117-18.095 18.095v8.648c-1.006-.174-2.04-.265-3.095-.265h-27.595c-9.978 0-18.095 8.118-18.095 18.096 0 0 .006 144.858.007 144.881.002.046 18.041 205.697 18.041 205.697.89 10.144 9.238 17.792 19.42 17.792h31.496c4.142 0 7.5-3.357 7.5-7.5s-3.358-7.5-7.5-7.5h-31.497c-2.347 0-4.272-1.764-4.478-4.103l-17.302-197.192h32.339c1.106 0 2.15.404 2.955 1.107.09.09.183.178.277.263.284.295.531.63.73 1.002l14.656 27.357c3.4 6.346 9.984 10.288 17.184 10.288h91.268c7.199 0 13.784-3.942 17.185-10.288l5.868-10.954c.261.051.523.097.786.137-.089.703-.135 1.419-.135 2.146v20.392c0 1.726.26 3.392.743 4.961-9.336 4.717-15.754 14.401-15.754 25.556 0 11.831 5.684 22.359 14.483 28.999-.125.979-.188 1.968-.188 2.962v21.604c0 2.898.534 5.675 1.507 8.235h-2.71c-5.198 0-10.097 2.284-13.44 6.267-3.327 3.964-4.721 9.153-3.826 14.239.832 4.723 2.024 9.516 3.544 14.245 4.266 13.279 12.282 24.532 22.683 32.775h-102.316c-4.142 0-7.5 3.357-7.5 7.5s3.358 7.5 7.5 7.5h117.933c3.322 0 6.546-.84 9.402-2.415 5.87 1.58 12.027 2.415 18.349 2.415h193.235c30.325 0 56.869-19.199 66.051-47.775 1.521-4.735 2.713-9.528 3.544-14.245.895-5.086-.499-10.275-3.825-14.239zm-30.359-118.975v20.392c0 1.051-.854 1.905-1.904 1.905h-80.991l34.229-24.202h46.761c1.051 0 1.905.855 1.905 1.905zm-74.648-1.905-36.127 25.544c-.032.022-.064.045-.096.068l-18.285 12.929c-1.719 1.214-4.025 1.216-5.742 0l-18.306-12.944c-.014-.01-.028-.02-.042-.029l-36.161-25.568zm-140.742 0 34.23 24.202h-80.991c-1.05 0-1.905-.854-1.905-1.905v-20.392c0-1.051.854-1.905 1.905-1.905zm-49.23-155.518h27.596c1.707 0 3.095 1.389 3.095 3.095v40.873c-12.681 9.569-24.064 20.917-33.785 33.544v-74.416c-.001-1.708 1.387-3.096 3.094-3.096zm-198.236 121.364v-137.076c0-1.707 1.388-3.096 3.095-3.096h27.596c1.707 0 3.095 1.389 3.095 3.096v137.076zm64.867 37.646-14.656-27.357c-.427-.797-.904-1.555-1.426-2.273v-171.571c0-1.706 1.388-3.095 3.095-3.095h27.596c1.707 0 3.095 1.389 3.095 3.095v203.573h-13.742c-1.66 0-3.177-.909-3.962-2.372zm32.704-241.602c0-1.707 1.388-3.096 3.095-3.096h27.596c1.707 0 3.095 1.389 3.095 3.096v243.975h-33.785v-243.975zm62.526 243.974h-13.741v-203.573c0-1.706 1.389-3.095 3.095-3.095h27.596c1.707 0 3.095 1.389 3.095 3.095v142.564c-4.972 8.997-9.164 18.408-12.478 28.099-2.124 6.213-1.108 13.116 2.717 18.467.028.039.056.077.084.115l-6.405 11.956c-.785 1.463-2.303 2.372-3.963 2.372zm37.305 33.338h105.509l16.388 11.587c3.448 2.438 7.488 3.657 11.529 3.657s8.083-1.22 11.531-3.657l16.387-11.587h105.508c7.505 0 13.611 6.106 13.611 13.611 0 11.767-9.572 21.339-21.338 21.339-8.569 0-12.453-2.111-17.371-4.785-5.695-3.097-12.151-6.606-24.535-6.606-12.383 0-18.838 3.51-24.534 6.607-4.916 2.673-8.8 4.784-17.367 4.784-8.568 0-12.452-2.111-17.368-4.785-5.696-3.097-12.151-6.606-24.534-6.606-12.382 0-18.838 3.51-24.533 6.606-4.916 2.674-8.799 4.785-17.367 4.785-8.567 0-12.45-2.111-17.366-4.784-5.695-3.098-12.15-6.607-24.533-6.607-12.381 0-18.835 3.51-24.53 6.607-4.915 2.672-8.797 4.783-17.36 4.784-11.765-.001-21.337-9.573-21.337-21.339-.002-7.504 6.104-13.611 13.61-13.611zm7.643 49.951h.22c12.288-.027 18.715-3.522 24.388-6.607 4.916-2.673 8.798-4.784 17.364-4.784 8.568 0 12.451 2.111 17.367 4.785 5.695 3.097 12.15 6.606 24.532 6.606s18.838-3.51 24.533-6.606c4.916-2.674 8.799-4.785 17.367-4.785s12.452 2.111 17.368 4.785c5.696 3.097 12.151 6.606 24.534 6.606 12.382 0 18.837-3.51 24.533-6.606 4.916-2.674 8.8-4.785 17.368-4.785 8.569 0 12.453 2.111 17.371 4.785 5.695 3.097 12.151 6.606 24.535 6.606 2.409 0 4.764-.236 7.044-.686v17.912c0 4.54-3.694 8.234-8.234 8.234h-249.016c-4.541 0-8.234-3.694-8.234-8.234v-17.923c2.252.446 4.579.685 6.96.697zm277.222 43.366c-.712 4.047-1.739 8.171-3.052 12.258-7.181 22.348-27.985 37.363-51.77 37.363h-193.234c-5.859 0-11.538-.912-16.876-2.62-.28-.111-.565-.205-.854-.281-15.935-5.388-28.722-17.915-34.039-34.463-1.312-4.083-2.339-8.207-3.053-12.258-.17-.97.267-1.666.542-1.995.286-.34.918-.91 1.951-.91h297.893c1.032 0 1.665.57 1.95.91.276.33.713 1.026.542 1.996z"/></g></g></svg>