<svg id="Capa_1" enable-background="new 0 0 512 512" height="512" viewBox="0 0 512 512" width="512" xmlns="http://www.w3.org/2000/svg"><g><path d="m437.02 74.98c-48.353-48.351-112.64-74.98-181.02-74.98l-20 256 20 256c68.38 0 132.667-26.629 181.02-74.98 48.351-48.353 74.98-112.64 74.98-181.02s-26.629-132.667-74.98-181.02z" fill="#e50058"/><path d="m74.98 74.98c-48.351 48.353-74.98 112.64-74.98 181.02s26.629 132.667 74.98 181.02c48.353 48.351 112.64 74.98 181.02 74.98v-512c-68.38 0-132.667 26.629-181.02 74.98z" fill="#ff4a4a"/><path d="m420.267 388.448c30.273-37.402 46.733-83.658 46.733-132.448 0-56.36-21.948-109.347-61.8-149.2-39.853-39.852-92.84-61.8-149.2-61.8l-20 78.552 20 100.628z" fill="#ece6f2"/><path d="m256 287.82-20 83.886 20 95.294c48.791 0 95.046-16.46 132.448-46.733z" fill="#ece6f2"/><path d="m256 224.18v-179.18c-48.79 0-95.045 16.46-132.447 46.733z" fill="#fff5f5"/><path d="m91.733 123.552c-30.273 37.402-46.733 83.658-46.733 132.448 0 56.36 21.948 109.347 61.8 149.2 39.853 39.852 92.84 61.8 149.2 61.8v-179.18z" fill="#fff5f5"/><path d="m301 120.5v-30h-45l-20 50z" fill="#0f0f4d"/><path d="m256 90.5h-45v30l45 20z" fill="#283d66"/><path d="m301 120.5h-45l-20 50 65-20z" fill="#283d66"/><path d="m211 120.5v30l45 20v-50z" fill="#4d628c"/><path d="m338.5 260.166c0-18.925-6.635-37.25-18.75-51.788-12.115-14.539-18.75-32.864-18.75-51.789v-6.089h-45l-20 173.75 20 81.25h82.5z" fill="#cfcfe6"/><path d="m211 150.5v6.089c0 18.925-6.635 37.25-18.75 51.788s-18.75 32.864-18.75 51.788v145.335h82.5v-255z" fill="#ece6f2"/><path d="m308.5 284.189c-22.687-2.158-37.594-6.674-52.5-11.189l-20 51.25 20 51.25h52.5z" fill="#ece6f2"/><path d="m203.5 261.811v113.689h52.5v-102.5c-14.907-4.516-29.813-9.031-52.5-11.189z" fill="#fff5f5"/></g></svg>