<?xml version="1.0" encoding="UTF-8" standalone="no"?>
<svg xmlns="http://www.w3.org/2000/svg" version="1.0" width="100pt" height="100pt" viewBox="150 150 200 200" preserveAspectRatio="xMidYMid meet">
  <defs>
    <linearGradient id="myGradient" x1="0%" y1="0%" x2="100%" y2="100%">
      <stop offset="0%" style="stop-color:#ff0; stop-opacity:1"></stop>
      <stop offset="100%" style="stop-color:#7fa213; stop-opacity:1"></stop>
    </linearGradient>
  </defs>
  <g transform="translate(0.000000,500.000000) scale(0.100000,-0.100000)" fill="url(#myGradient)" stroke="none">
    <path d="M2310 3459 c-339 -88 -570 -386 -570 -733 0 -332 206 -621 514 -721 371 -120 770 47 932 390 206 436 -34 947 -500 1065 -106 27 -272 27 -376 -1z m390 -107 c100 -33 187 -89 275 -177 129 -129 185 -265 185 -455 0 -255 -133 -467 -365 -580 -115 -56 -196 -73 -330 -67 -170 7 -308 64 -431 179 -163 153 -237 387 -190 606 51 241 250 446 492 506 87 22 279 16 364 -12z"></path>
    <path d="M2370 3275 c-17 -20 -5 -32 15 -15 12 10 21 10 40 2 20 -9 25 -9 25 2 0 27 -60 35 -80 11z"></path>
    <path d="M2534 3276 c-25 -18 -12 -31 16 -16 31 17 74 -12 67 -46 -3 -16 0 -24 9 -24 23 0 16 49 -11 75 -27 28 -52 31 -81 11z"></path>
    <path d="M2688 3284 c-4 -3 -1 -16 7 -28 23 -31 18 -55 -16 -87 -28 -26 -29 -29 -11 -29 27 0 62 46 62 80 0 30 -31 76 -42 64z"></path>
    <path d="M2140 3233 c0 -13 9 -28 20 -35 26 -16 25 -34 -1 -48 -24 -14 -23 -67 2 -83 26 -16 68 0 75 30 6 21 2 31 -21 50 l-27 24 21 20 c22 21 28 49 11 49 -5 0 -15 -8 -22 -19 -11 -17 -12 -17 -34 8 -23 26 -23 26 -24 4z m40 -102 c0 -5 -7 -14 -15 -21 -16 -14 -18 -10 -9 14 6 17 24 22 24 7z"></path>
    <path d="M2329 3227 c-21 -17 -10 -52 18 -53 12 0 20 3 17 8 -3 5 0 15 6 23 10 12 9 15 -3 15 -8 0 -17 4 -19 9 -2 5 -10 4 -19 -2z"></path>
    <path d="M2489 3206 c-8 -17 -17 -22 -33 -19 -21 4 -21 4 -2 -11 24 -19 55 -20 79 -2 24 19 21 29 -7 22 -20 -5 -23 -3 -19 14 7 28 -5 25 -18 -4z"></path>
    <path d="M2770 3181 c0 -5 12 -23 26 -40 l26 -31 -27 -10 c-25 -9 -27 -14 -23 -48 8 -57 35 -113 51 -106 17 6 52 116 44 138 -4 9 -13 16 -22 16 -21 0 -19 16 5 40 11 11 20 27 20 35 0 13 -4 14 -20 5 -11 -6 -20 -16 -20 -22 0 -6 -10 -2 -23 10 -25 24 -37 28 -37 13z m30 -111 c0 -5 -2 -10 -4 -10 -3 0 -8 5 -11 10 -3 6 -1 10 4 10 6 0 11 -4 11 -10z m50 0 c0 -5 -4 -10 -9 -10 -6 0 -13 5 -16 10 -3 6 1 10 9 10 9 0 16 -4 16 -10z m-40 -30 c0 -5 -4 -10 -10 -10 -5 0 -10 5 -10 10 0 6 5 10 10 10 6 0 10 -4 10 -10z m40 0 c0 -5 -4 -10 -10 -10 -5 0 -10 5 -10 10 0 6 5 10 10 10 6 0 10 -4 10 -10z m-17 -37 c-7 -2 -21 -2 -30 0 -10 3 -4 5 12 5 17 0 24 -2 18 -5z"></path>
    <path d="M2408 3112 c-24 -27 -28 -48 -17 -87 16 -58 39 -74 102 -71 64 3 75 9 93 52 19 46 18 80 -5 103 -27 27 -151 29 -173 3z m67 -12 c3 -5 20 -7 38 -4 32 6 32 5 7 -8 -24 -13 -33 -31 -45 -90 -4 -19 -10 -26 -20 -21 -18 6 -45 54 -45 79 0 35 50 69 65 44z m75 -99 c-18 -34 -30 -24 -12 11 8 18 17 27 19 21 3 -7 -1 -21 -7 -32z"></path>
    <path d="M2054 3096 c-8 -8 -7 -15 0 -22 8 -8 15 -7 22 0 8 8 7 15 0 22 -8 8 -15 7 -22 0z"></path>
    <path d="M2932 3024 c-37 -45 -52 -101 -52 -193 0 -61 3 -72 22 -85 12 -9 30 -16 40 -16 14 0 18 -8 18 -35 0 -24 -5 -35 -15 -35 -22 0 -22 -285 0 -294 8 -3 21 2 30 10 13 13 15 63 15 350 0 368 0 369 -58 298z m28 -144 c0 -113 -1 -120 -20 -120 -31 0 -43 35 -35 103 7 64 32 137 46 137 5 0 9 -54 9 -120z"></path>
    <path d="M2264 3003 c11 -44 34 -72 64 -78 15 -4 35 -10 44 -15 25 -14 29 2 10 40 -19 38 -54 65 -96 75 -27 6 -28 5 -22 -22z m75 -34 c12 -12 20 -23 17 -26 -7 -8 -56 25 -56 37 0 16 14 12 39 -11z"></path>
    <path d="M2674 3019 c-35 -10 -53 -29 -77 -81 -17 -39 -6 -64 13 -28 6 11 19 20 30 20 32 0 50 11 65 41 16 30 20 60 8 58 -5 0 -22 -5 -39 -10z m1 -49 c-10 -11 -25 -20 -34 -20 -11 1 -8 8 13 26 32 29 48 24 21 -6z"></path>
    <path d="M1937 3003 c-11 -11 -8 -160 4 -185 11 -23 81 -78 99 -78 6 0 10 4 10 10 0 5 13 16 29 24 15 8 34 28 40 44 16 37 11 184 -6 190 -10 3 -13 -17 -13 -77 0 -65 -3 -81 -15 -81 -12 0 -15 16 -15 80 0 47 -4 80 -10 80 -6 0 -10 -33 -10 -80 0 -63 -3 -80 -15 -80 -11 0 -15 18 -17 77 -2 50 -7 78 -15 81 -10 3 -13 -17 -13 -77 0 -65 -3 -81 -15 -81 -12 0 -15 16 -15 80 0 73 -6 91 -23 73z"></path>
    <path d="M2180 2990 c0 -15 5 -20 18 -18 9 2 17 10 17 18 0 8 -8 16 -17 18 -13 2 -18 -3 -18 -18z"></path>
    <path d="M2685 2913 c-50 -26 -67 -45 -96 -108 l-27 -60 5 42 c5 36 2 45 -23 67 -16 15 -39 36 -51 48 -13 12 -23 16 -23 9 0 -6 -11 -16 -24 -21 -14 -5 -33 -21 -42 -35 l-17 -26 -32 31 c-36 35 -88 53 -127 44 -43 -9 -33 -24 15 -24 62 0 101 -29 137 -100 l30 -60 -33 0 c-31 0 -33 2 -33 35 0 51 -36 85 -89 85 -53 0 -88 -34 -89 -85 -1 -19 -6 -37 -13 -39 -13 -5 -9 -55 9 -116 17 -56 68 -126 120 -166 28 -21 47 -43 44 -50 -11 -29 22 -35 175 -32 l154 3 3 28 c2 15 8 27 13 27 23 0 118 104 138 150 31 71 39 140 18 155 -13 9 -15 18 -7 43 8 30 7 32 -16 32 -21 0 -24 4 -24 40 0 46 -6 48 -59 20 -52 -26 -84 -67 -79 -102 4 -26 2 -28 -29 -28 -18 0 -33 1 -33 3 0 2 12 28 26 58 32 67 67 105 111 120 35 11 45 29 16 29 -10 -1 -31 -8 -48 -17z m-187 -55 c21 -21 14 -75 -13 -96 -13 -11 -21 -22 -18 -26 3 -3 -1 -6 -10 -6 -21 0 -47 38 -47 70 0 54 55 91 88 58z m262 -43 c0 -33 -25 -81 -45 -89 -34 -13 -35 -5 -6 31 42 51 39 65 -4 23 -38 -37 -47 -37 -34 -3 7 21 63 63 82 63 4 0 7 -11 7 -25z m-462 -12 c21 -18 26 -32 23 -65 -1 -13 -12 -16 -66 -15 -70 1 -81 10 -65 51 17 46 72 60 108 29z m502 -40 c0 -10 -32 -43 -41 -43 -5 0 -3 11 3 25 10 22 38 36 38 18z m10 -93 c0 -19 -7 -20 -262 -21 -323 -2 -317 -2 -318 -14 0 -6 103 -11 286 -13 l285 -2 -7 -23 c-21 -68 -93 -144 -172 -180 -68 -32 -199 -30 -262 2 -88 45 -179 156 -167 203 3 11 0 21 -9 25 -8 3 -14 14 -14 24 0 18 13 19 320 19 313 0 320 0 320 -20z"></path>
    <path d="M2236 2762 c-8 -13 11 -35 23 -28 16 10 14 36 -3 36 -8 0 -17 -4 -20 -8z"></path>
    <path d="M2500 2570 c0 -5 20 -10 45 -10 25 0 45 5 45 10 0 6 -20 10 -45 10 -25 0 -45 -4 -45 -10z"></path>
    <path d="M2290 2510 c0 -6 48 -10 124 -10 73 0 127 4 131 10 4 6 -40 10 -124 10 -81 0 -131 -4 -131 -10z"></path>
    <path d="M1910 2761 c0 -5 7 -12 16 -15 14 -5 15 -4 4 9 -14 17 -20 19 -20 6z"></path>
    <path d="M1910 2726 c0 -3 9 -10 20 -16 11 -6 20 -8 20 -6 0 3 -9 10 -20 16 -11 6 -20 8 -20 6z"></path>
    <path d="M2018 2713 c6 -2 18 -2 25 0 6 3 1 5 -13 5 -14 0 -19 -2 -12 -5z"></path>
    <path d="M3051 2706 c-9 -10 -8 -15 2 -19 22 -8 37 6 22 20 -10 10 -16 9 -24 -1z"></path>
    <path d="M1910 2686 c0 -2 7 -7 16 -10 8 -3 12 -2 9 4 -6 10 -25 14 -25 6z"></path>
    <path d="M2018 2683 c6 -2 18 -2 25 0 6 3 1 5 -13 5 -14 0 -19 -2 -12 -5z"></path>
    <path d="M1917 2649 c7 -7 15 -10 18 -7 3 3 -2 9 -12 12 -14 6 -15 5 -6 -5z"></path>
    <path d="M2000 2526 c0 -110 3 -137 16 -151 12 -12 19 -13 30 -4 11 9 14 44 14 150 l0 139 -30 0 -30 0 0 -134z"></path>
    <path d="M1910 2616 c0 -2 7 -7 16 -10 8 -3 12 -2 9 4 -6 10 -25 14 -25 6z"></path>
    <path d="M3045 2609 c-4 -6 -3 -15 3 -21 6 -6 11 -4 15 6 7 18 -9 31 -18 15z"></path>
    <path d="M1922 2574 c10 -10 20 -15 24 -12 3 4 -5 12 -18 18 -22 12 -22 12 -6 -6z"></path>
    <path d="M1935 2500 c3 -5 8 -10 11 -10 2 0 4 5 4 10 0 6 -5 10 -11 10 -5 0 -7 -4 -4 -10z"></path>
    <path d="M3040 2500 c0 -5 5 -10 10 -10 6 0 10 5 10 10 0 6 -4 10 -10 10 -5 0 -10 -4 -10 -10z"></path>
    <path d="M2140 2490 c0 -5 5 -10 11 -10 5 0 7 5 4 10 -3 6 -8 10 -11 10 -2 0 -4 -4 -4 -10z"></path>
    <path d="M2130 2411 c0 -5 6 -14 14 -20 12 -10 10 -16 -10 -36 -29 -29 -30 -45 -6 -75 21 -26 67 -30 87 -9 27 29 27 57 0 84 -22 23 -24 28 -10 41 8 9 15 17 15 20 0 9 -19 3 -33 -11 -13 -13 -16 -13 -27 0 -14 17 -30 20 -30 6z m78 -83 c-6 -17 -58 -22 -72 -7 -8 9 -6 11 10 7 12 -3 28 -2 35 3 20 12 31 11 27 -3z m2 -37 c0 -12 -39 -21 -45 -11 -3 5 3 11 12 13 29 8 33 7 33 -2z"></path>
    <path d="M2803 2377 c4 -10 -1 -25 -12 -36 -23 -23 -19 -46 15 -87 l24 -29 30 35 c34 39 38 65 11 81 -11 8 -17 20 -14 33 4 19 3 20 -10 4 -13 -16 -15 -16 -32 0 -17 16 -17 16 -12 -1z m67 -62 c0 -9 -7 -27 -16 -41 l-17 -25 -23 22 c-13 13 -24 31 -24 41 0 14 8 18 40 18 29 0 40 -4 40 -15z"></path>
    <path d="M2846 2311 c-4 -6 -13 -8 -21 -4 -17 6 -20 -12 -4 -23 12 -7 46 22 37 31 -3 4 -9 2 -12 -4z"></path>
    <path d="M2606 2280 l-36 -41 31 -39 c18 -22 39 -40 48 -40 9 0 31 18 49 40 l33 39 -37 41 c-20 22 -40 40 -44 40 -4 0 -24 -18 -44 -40z m75 -13 l27 -32 -30 -34 c-16 -18 -30 -31 -31 -29 -1 2 -15 17 -31 35 l-29 32 29 30 c16 16 31 30 34 30 3 0 17 -15 31 -32z"></path>
    <path d="M2632 2255 c-10 -12 -10 -19 0 -34 11 -18 14 -19 30 -5 14 13 15 20 5 35 -14 22 -18 23 -35 4z"></path>
    <path d="M2300 2299 c0 -4 5 -11 11 -15 8 -4 2 -12 -15 -21 -33 -17 -34 -46 -1 -78 28 -29 42 -31 73 -9 29 20 31 80 3 89 -12 3 -17 12 -14 23 3 13 -3 17 -27 18 -16 1 -30 -2 -30 -7z m70 -75 c0 -14 -9 -28 -21 -35 -18 -9 -25 -7 -42 9 -28 28 -16 50 27 50 31 0 36 -3 36 -24z"></path>
    <path d="M2480 2295 c0 -8 -5 -15 -12 -15 -6 0 -9 -2 -6 -5 3 -3 13 -3 22 1 17 7 22 34 6 34 -5 0 -10 -7 -10 -15z"></path>
    <path d="M2453 2234 c-7 -19 22 -84 37 -84 14 0 51 62 47 80 -3 21 -76 25 -84 4z"></path>
    <path d="M2210 2206 c0 -9 5 -16 10 -16 6 0 10 4 10 9 0 6 -4 13 -10 16 -5 3 -10 -1 -10 -9z"></path>
    <path d="M2415 2160 c3 -5 8 -10 11 -10 2 0 4 5 4 10 0 6 -5 10 -11 10 -5 0 -7 -4 -4 -10z"></path>
  </g>
</svg>
