<svg id="Layer_1" enable-background="new 0 0 256 256" height="512" viewBox="0 0 256 256" width="512" xmlns="http://www.w3.org/2000/svg"><g><g><path d="m198.488 208.488h-140.976c-5.523 0-10-4.477-10-10v-140.976c0-5.523 4.477-10 10-10h140.975c5.523 0 10 4.477 10 10v140.975c.001 5.524-4.476 10.001-9.999 10.001z" fill="#f79219"/></g><g><path d="m198.488 47.512v140.975c0 5.523-4.477 10-10 10h-140.976c0 5.523 4.477 10 10 10h140.975c5.523 0 10-4.477 10-10v-140.975c.001-5.523-4.476-10-9.999-10z" fill="#ef7816"/></g><g><g><g><g><path d="m91.625 107.836c-2.106 1.139-4.737.355-5.875-1.751l-29.84-55.186c-1.139-2.106-.355-4.737 1.751-5.875 2.106-1.139 4.737-.355 5.875 1.751l29.84 55.185c1.139 2.106.355 4.737-1.751 5.876z" fill="#648940"/></g></g><g><g><path d="m84.643 94.924c-1.011.547-2.199.669-3.3.341l-18.028-5.375c-2.295-.683-3.6-3.098-2.916-5.392.684-2.295 3.097-3.6 5.392-2.916l13.874 4.136 4.137-13.875c.684-2.295 3.097-3.6 5.392-2.916 2.295.683 3.6 3.098 2.916 5.392l-5.375 18.03c-.328 1.102-1.081 2.028-2.092 2.575z" fill="#648940"/></g></g><g><g><path d="m82.203 39.699c-.9-.783-2.795-.208-4.944 1.31.56-2.307.41-4.078-.566-4.623s-2.562.255-4.233 1.942c.166-2.625-.338-4.54-1.477-4.896-1.496-.468-3.624 1.898-5.226 5.563-1.88-4.527-4.443-7.481-6.276-6.935-1.382.412-2.023 2.718-1.867 5.894-1.991-2.067-3.896-3.061-5.085-2.418s-1.4 2.781-.761 5.579c-2.572-1.87-4.853-2.597-5.954-1.665-1.46 1.234-.392 4.997 2.367 9.048-3.944-.667-7.089-.181-7.516 1.327-.325 1.148 1.001 2.618 3.289 3.917-2.326.474-3.865 1.364-3.943 2.479s1.321 2.21 3.559 3.004c-2.446.967-3.965 2.238-3.803 3.42.261 1.902 4.773 2.854 10.078 2.127 1.875-.257 18.99 14.541 24.689 11.459s2.687-25.506 3.929-26.934c3.515-4.041 5.189-8.338 3.74-9.598z" fill="#76a34f"/></g></g><g><g><path d="m82.203 39.699c-.9-.783-2.795-.208-4.944 1.31.333-1.37.415-2.55.223-3.398-.541 1.879-1.965 4.326-4.017 6.686-1.242 1.428 1.77 23.852-3.929 26.934s-22.814-11.716-24.689-11.459c-1.017.139-2.005.217-2.939.238-1.442.819-2.26 1.752-2.139 2.635.261 1.902 4.773 2.854 10.078 2.127 1.875-.257 18.99 14.541 24.689 11.459s2.687-25.505 3.929-26.934c3.513-4.041 5.187-8.338 3.738-9.598z" fill="#648940"/></g></g><g><g><g><g><path d="m53.442 69.828c-.704.141-1.128 1.255-1.196 2.836-.892-1.116-1.791-1.696-2.409-1.432-.619.264-.822 1.314-.633 2.731-1.189-1.045-2.286-1.51-2.875-1.099-.774.54-.43 2.424.725 4.536-2.848-.771-5.198-.638-5.613.436-.313.81.55 1.964 2.12 3.059-1.717.187-2.892.728-3.023 1.531-.132.803.809 1.69 2.376 2.416-1.837.536-3.023 1.355-2.985 2.222.05 1.15 2.235 2.026 5.18 2.204-1.769 1.633-2.696 3.309-2.135 4.068.427.577 1.615.487 3.076-.124-.63 1.282-.773 2.342-.271 2.79s1.539.184 2.741-.589c-.44 1.521-.394 2.712.229 3.07 1.002.576 3.116-1.222 4.723-4.016.568-.987 13.915-3.69 14.545-7.538.631-3.848-11.156-10.669-11.379-11.786-.633-3.162-2.063-5.541-3.196-5.315z" fill="#76a34f"/></g></g></g><g><g><path d="m62.434 79.841c.455.749.684 1.457.581 2.086-.631 3.848-13.978 6.551-14.545 7.538-1.607 2.794-3.721 4.592-4.723 4.016-.479-.275-.616-1.044-.454-2.075-.486.814-.629 1.511-.32 1.929.427.577 1.615.487 3.076-.124-.63 1.282-.773 2.342-.271 2.79s1.539.184 2.741-.589c-.44 1.521-.394 2.712.229 3.07 1.002.576 3.116-1.222 4.723-4.016.568-.987 13.915-3.69 14.545-7.538.322-1.971-2.612-4.722-5.582-7.087z" fill="#648940"/></g></g><g><g><g><path d="m80.619 55.133c.503-.512 1.667-.257 3.028.552-.445-1.358-.439-2.427.121-2.801.56-.373 1.55.032 2.632.965-.224-1.567-.012-2.74.654-3.008.875-.352 2.264.967 3.399 3.091.914-2.805 2.312-4.699 3.437-4.458.849.182 1.343 1.535 1.399 3.449 1.097-1.334 2.193-2.021 2.936-1.691.744.329.971 1.602.72 3.311 1.455-1.244 2.789-1.788 3.494-1.281.935.672.472 2.98-.992 5.541 2.335-.587 4.245-.444 4.573.44.249.673-.477 1.618-1.788 2.506 1.418.175 2.383.635 2.483 1.301.1.665-.688 1.389-1.993 1.971 1.514.465 2.485 1.155 2.444 1.872-.066 1.154-2.729 1.938-5.946 1.753-1.137-.065-10.706 9.624-14.272 8.044-3.566-1.579-2.819-15.177-3.632-15.975-2.299-2.259-3.506-4.758-2.697-5.582z" fill="#76a34f"/></g></g></g><g><g><path d="m104.723 65.02c1.305-.582 2.093-1.306 1.993-1.971s-1.065-1.126-2.483-1.301c1.311-.888 2.037-1.832 1.788-2.506-.326-.88-2.217-1.025-4.534-.45-.317.432-.936.858-1.764 1.228 1.514.465 2.485 1.155 2.444 1.872-.066 1.154-2.729 1.938-5.946 1.753-.923-.053-7.397 6.316-11.711 7.876.441 2.503 1.164 4.603 2.439 5.168 3.566 1.579 13.135-8.109 14.272-8.044 3.218.185 5.88-.6 5.946-1.753.041-.717-.93-1.407-2.444-1.872z" fill="#648940"/></g></g></g></g></g><g><g><g><path d="m19.822 137.925c-4.04 5.785-2.626 13.749 3.158 17.789 4.399 3.072 10.057 2.99 14.293.231.808 2.627 2.465 5.015 4.894 6.711 3.551 2.48 7.923 2.904 11.705 1.525.006 4.026 1.91 7.984 5.461 10.465 5.785 4.04 13.749 2.626 17.789-3.158.61-.873 1.094-1.795 1.459-2.747 4.955 1.182 10.349-.685 13.442-5.114 4.04-5.785 2.626-13.749-3.158-17.789-3.619-2.528-8.091-2.92-11.921-1.444-.65-3.057-2.415-5.884-5.18-7.815-3.87-2.703-8.714-2.964-12.708-1.11.366-4.387-1.547-8.846-5.417-11.549-5.785-4.04-13.749-2.626-17.789 3.158-1.253 1.794-1.981 3.797-2.217 5.828-5.054-1.368-10.64.48-13.811 5.019z" fill="#91b56b"/></g></g><g><g><path d="m88.865 145.837c-.369-.258-.747-.493-1.132-.706 2.278 4.13 2.173 9.368-.71 13.496-3.094 4.429-8.488 6.296-13.442 5.114-.365.951-.85 1.874-1.459 2.747-3.783 5.416-11.005 7-16.658 3.865.914 1.658 2.212 3.137 3.869 4.294 5.785 4.04 13.749 2.626 17.789-3.159.61-.873 1.094-1.795 1.459-2.747 4.955 1.182 10.349-.685 13.442-5.114 4.041-5.786 2.627-13.75-3.158-17.79z" fill="#76a34f"/></g></g><g><g><path d="m25.406 163.15c-3.415 4.89-2.22 11.623 2.67 15.038 3.718 2.597 8.502 2.527 12.082.195.683 2.221 2.084 4.239 4.137 5.673 3.002 2.096 6.697 2.455 9.894 1.289.005 3.403 1.615 6.749 4.616 8.846 4.89 3.415 11.623 2.22 15.038-2.67.515-.738.925-1.518 1.233-2.322 4.188.999 8.748-.579 11.363-4.323 3.415-4.89 2.22-11.623-2.67-15.038-3.059-2.137-6.839-2.469-10.077-1.221-.549-2.584-2.042-4.974-4.379-6.606-3.271-2.285-7.366-2.506-10.742-.938.31-3.709-1.308-7.478-4.579-9.762-4.89-3.415-11.623-2.22-15.038 2.67-1.059 1.516-1.674 3.21-1.874 4.927-4.271-1.156-8.994.405-11.674 4.242z" fill="#76a34f"/></g></g><g><g><path d="m83.77 169.838c-.474-.331-.964-.618-1.468-.863 1.649 3.405 1.458 7.578-.862 10.901-2.615 3.744-7.175 5.322-11.363 4.323-.309.804-.718 1.584-1.233 2.322-3.085 4.417-8.876 5.819-13.571 3.532.778 1.607 1.965 3.043 3.533 4.138 4.89 3.415 11.622 2.22 15.038-2.67.515-.738.925-1.518 1.233-2.322 4.188.999 8.748-.579 11.363-4.323 3.415-4.89 2.219-11.623-2.67-15.038z" fill="#648940"/></g></g><g><g><path d="m39.934 118.958c-3.415 4.89-2.22 11.623 2.67 15.038 3.718 2.597 8.502 2.527 12.082.195.683 2.221 2.084 4.239 4.137 5.673 3.002 2.096 6.697 2.455 9.894 1.289.005 3.403 1.615 6.749 4.616 8.846 4.89 3.415 11.623 2.22 15.038-2.67.515-.738.925-1.518 1.233-2.322 4.188.999 8.748-.579 11.363-4.323 3.415-4.89 2.22-11.623-2.67-15.038-3.059-2.137-6.839-2.469-10.077-1.221-.549-2.584-2.042-4.974-4.379-6.606-3.271-2.285-7.366-2.506-10.742-.938.31-3.709-1.308-7.478-4.579-9.762-4.89-3.415-11.623-2.22-15.038 2.67-1.059 1.516-1.674 3.21-1.874 4.927-4.271-1.157-8.994.405-11.674 4.242z" fill="#76a34f"/></g></g><g><g><path d="m98.298 125.646c-.474-.331-.964-.618-1.468-.863 1.649 3.405 1.458 7.578-.862 10.901-2.615 3.744-7.175 5.322-11.363 4.323-.309.804-.718 1.584-1.234 2.322-3.085 4.417-8.876 5.819-13.571 3.532.778 1.607 1.965 3.043 3.533 4.138 4.89 3.415 11.622 2.22 15.038-2.67.515-.738.925-1.518 1.234-2.322 4.188.999 8.748-.579 11.363-4.323 3.415-4.89 2.219-11.623-2.67-15.038z" fill="#648940"/></g></g></g><g><g><path d="m212.564 164.965 24.422-3.587c3.45-.507 4.088-5.21.898-6.618l-14.671-6.474c-2.802-1.236-4.682-3.93-4.877-6.986l-1.021-16.003c-.222-3.479-4.858-4.501-6.522-1.438l-11.784 21.69c-.442.814-1.335 1.262-2.254 1.143-12.203-1.591-28.903-1.48-41.529 7.335-15.757 11-20.979 32.63-22.693 44.557-.701 4.879 2.513 9.483 7.335 10.506 11.787 2.502 33.891 5.054 49.648-5.946 12.627-8.815 18.487-24.453 21.199-36.457.204-.903.933-1.587 1.849-1.722z" fill="#939598"/></g><g><circle cx="161.07" cy="188.354" fill="#808285" r="4.513"/></g><g><g><path d="m237.885 154.761-2.966-1.309c-.207 1.398-1.225 2.676-2.932 2.927l-24.422 3.587c-.917.135-1.645.818-1.849 1.722-2.712 12.004-8.572 27.642-21.199 36.457-15.757 11-37.862 8.448-49.648 5.946-.589-.125-1.153-.304-1.69-.529 1.159 2.737 3.593 4.872 6.69 5.529 11.786 2.502 33.891 5.054 49.648-5.946 12.627-8.815 18.487-24.453 21.199-36.457.204-.904.933-1.587 1.849-1.722l24.422-3.587c3.449-.507 4.088-5.211.898-6.618z" fill="#808285"/></g></g><g><path d="m175.69 157.165 22.708 1.463c3.207.207 4.688-3.911 2.082-5.794l-11.982-8.658c-2.288-1.654-3.466-4.444-3.054-7.237l2.157-14.625c.469-3.18-3.514-4.993-5.603-2.551l-14.796 17.289c-.555.649-1.447.881-2.252.597-10.696-3.781-25.773-6.893-38.852-1.374-16.322 6.887-25.19 25.384-29.028 35.807-1.57 4.264.442 9.033 4.592 10.883 10.145 4.522 29.583 11.075 45.905 4.188 13.079-5.519 21.37-18.491 26.124-28.791.358-.775 1.146-1.252 1.999-1.197z" fill="#f1f2f2"/></g><g><circle cx="119.138" cy="166.652" fill="#d1d3d4" r="4.513"/></g><g><g><path d="m200.48 152.835-8.839-6.387c-.427 1.271-1.611 2.286-3.244 2.181l-22.708-1.463c-.852-.055-1.641.422-1.998 1.197-4.754 10.3-13.045 23.272-26.124 28.791-13.992 5.904-30.274 1.932-41.029-2.172-.031 3.353 1.902 6.548 5.124 7.984 10.145 4.523 29.583 11.075 45.905 4.188 13.079-5.519 21.37-18.491 26.124-28.791.358-.775 1.146-1.252 1.998-1.197l22.708 1.463c3.208.206 4.688-3.912 2.083-5.794z" fill="#d1d3d4"/></g></g></g><g><g><path d="m160.749 49.718c-1.446-.348-2.34-1.798-2-3.246l1.738-7.404c1.217-5.223 4.021-9.941 8.029-13.505 1.114-.994 2.823-.897 3.817.218.994 1.114.897 2.823-.218 3.817-3.177 2.824-5.401 6.563-6.366 10.703l-1.738 7.404c-.341 1.453-1.796 2.355-3.25 2.014z" fill="#8c3f0a"/></g><g><path d="m178.209 45.024c-5.677-1.33-11.642-.598-16.828 2.066-3.459-4.693-8.476-8.002-14.152-9.335-13.497-3.168-27.084 5.533-30.345 19.433-3.261 13.901-.334 50.619 13.163 53.787 5.879 1.38 25.06 6.058 30.94 7.438 13.497 3.168 32.492-28.583 35.754-42.484 3.261-13.903-5.036-27.733-18.532-30.905z" fill="#e63950"/></g><g><path d="m124.43 95.07c-.9 0-1.69-.6-1.93-1.47-.14-.51-.07-1.05.19-1.52.26-.46.69-.8 1.21-.94 1.05-.28 2.17.36 2.46 1.4v.01c.14.51.07 1.05-.19 1.51-.27.47-.7.8-1.21.94-.18.05-.35.07-.53.07zm-1.65-7.83c-.99 0-1.82-.71-1.97-1.69-.75-4.82-1.15-10-1.15-14.96 0-4.99.4-9.42 1.12-12.49 1.12-4.76 3.82-9.09 7.6-12.18 3.79-3.1 8.49-4.81 13.25-4.82 1.1 0 2 .9 2 2 0 1.11-.9 2-2 2h-.04c-7.92 0-15.04 5.85-16.92 13.92-.64 2.69-1.01 7.01-1.01 11.57 0 4.76.38 9.72 1.1 14.35.09.53-.04 1.05-.36 1.49-.31.43-.78.71-1.31.79-.1.02-.21.02-.31.02z" fill="#e8566f"/></g><g><path d="m184.255 47.318c2.978 5.433 4.033 12.013 2.485 18.61-3.262 13.902-22.257 45.652-35.754 42.484-5.625-1.32-23.425-5.659-30.104-7.24 2.241 5.165 5.26 8.887 9.164 9.803 5.88 1.38 25.06 6.058 30.94 7.438 13.497 3.168 32.492-28.583 35.754-42.484 2.741-11.681-2.678-23.31-12.485-28.611z" fill="#d10028"/></g><g><g><path d="m156.42 42.069c-.041-.031-.082-.062-.123-.093.028.038.056.075.084.113.013-.006.026-.013.039-.02z" fill="#b7022d"/></g><g><path d="m187.279 49.252c4.438 5.91 6.314 13.781 4.462 21.676-3.262 13.902-22.257 45.652-35.754 42.484-5.88-1.38-25.06-6.058-30.94-7.438-.717-.168-1.404-.432-2.062-.781 1.927 3.031 4.268 5.125 7.062 5.781 5.88 1.38 25.06 6.058 30.94 7.438 13.497 3.168 32.492-28.583 35.754-42.484 2.443-10.417-1.603-20.793-9.462-26.676z" fill="#b7022d"/></g></g><g><g><path d="m157.778 43.427c-.041-.031-.082-.062-.123-.093.028.038.056.075.084.113.012-.007.026-.014.039-.02z" fill="#b7022d"/></g></g><g><path d="m161.428 19.135c3.671 3.839 4.066 9.821 3.99 12.938-.03 1.179-1.006 2.113-2.185 2.091-3.117-.062-9.076-.722-12.749-4.559-3.673-3.838-4.066-9.821-3.99-12.938.03-1.179 1.006-2.113 2.185-2.091 3.12.062 9.08.721 12.749 4.559z" fill="#76a34f"/></g><g><path d="m165.418 32.073c.076-3.117-.318-9.099-3.99-12.938-.21-.22-.429-.43-.654-.629.875 2.823.996 5.686.95 7.537-.03 1.179-1.006 2.113-2.185 2.091-2.938-.058-8.403-.648-12.097-3.932.598 1.931 1.549 3.844 3.041 5.403 3.673 3.838 9.632 4.497 12.749 4.559 1.18.022 2.156-.912 2.186-2.091z" fill="#648940"/></g><g><path d="m181.269 12.657c-7.444 2.598-11.797 10.596-13.439 14.235-.474 1.045-.043 2.278.978 2.802 3.55 1.828 11.933 5.382 19.378 2.785s11.796-10.597 13.438-14.23c.474-1.046.044-2.279-.978-2.803-3.55-1.831-11.934-5.385-19.377-2.789z" fill="#76a34f"/></g><g><path d="m200.645 15.446c-.893-.461-2.093-1.031-3.507-1.585-2.051 4.007-6.182 10.333-12.646 12.588-5.571 1.943-11.667.442-15.87-1.203-.312.609-.576 1.165-.793 1.645-.474 1.045-.044 2.279.978 2.802 3.55 1.828 11.933 5.382 19.378 2.786 7.445-2.597 11.796-10.597 13.438-14.23.474-1.045.044-2.279-.978-2.803z" fill="#648940"/></g></g></g></svg>