<svg height="512" viewBox="0 0 512 512" width="512" xmlns="http://www.w3.org/2000/svg"><g id="filled_outline" data-name="filled outline"><path d="m281.691 179.45h-74.558a21.986 21.986 0 0 1 -17.89-34.764l37.279-52.186a21.985 21.985 0 0 1 35.78 0l37.279 52.191a21.985 21.985 0 0 1 -17.89 34.759z" fill="#b3b3b3"/><path d="m212.412 275.45-19.1 63.675a22.915 22.915 0 0 1 -21.942 16.328h-.47a2.161 2.161 0 0 0 -1.3 3.888l.369.277a25.973 25.973 0 0 0 39.452-10.534c5.647-13.167 10.99-25.634 10.99-25.634l-3.774 33.969a92.38 92.38 0 0 1 -34.106 61.934 2.6 2.6 0 0 0 2.342 4.536 72.818 72.818 0 0 0 51.638-56.99l7.9-43.449 7.9 43.449a72.819 72.819 0 0 0 51.639 56.99 2.6 2.6 0 0 0 2.341-4.536 92.38 92.38 0 0 1 -34.106-61.934l-3.774-33.969 10.989 25.63a25.967 25.967 0 0 0 39.448 10.543l.265-.2a2.208 2.208 0 0 0 -1.324-3.975h-.328a22.913 22.913 0 0 1 -21.945-16.325l-19.1-63.675z" fill="#b3b3b3"/><path d="m444.009 419.289h-16.69a27.327 27.327 0 0 1 -19.323-8l-8-8-8 8a27.327 27.327 0 0 1 -19.323 8h-16.69a6.171 6.171 0 0 1 -5.022-9.757l33.039-46.243h32l33.031 46.243a6.171 6.171 0 0 1 -5.022 9.757z" fill="#f08977"/><path d="m432 291.29-1.67 20-.66 8-1.34 16-.66 8-1.34 16-.66 8-.37 4.42a17 17 0 0 1 -16.78 15.58h-16.89a17 17 0 0 1 -16.93-15.58l-.37-4.42-.66-8-1.34-16-.66-8-1.34-16-.66-8-1.67-20z" fill="#e58073"/><path d="m352.821 191.7 23.179 11.589v16l-31.468-15.734a29.906 29.906 0 0 1 -16.532-26.749v-45.517h16v46.138a15.957 15.957 0 0 0 8.821 14.273z" fill="#e58073"/><path d="m368 83.29-5.95 47.63a18.693 18.693 0 0 1 -18.55 16.37h-15a18.693 18.693 0 0 1 -18.55-16.37 43.7 43.7 0 0 1 -.33-5.33 42.383 42.383 0 0 1 42.38-42.3l-6.18 6.18a19.27 19.27 0 0 0 -3.61 22.24 6.551 6.551 0 0 0 2.39 2.61 6.444 6.444 0 0 0 6.8 0 6.551 6.551 0 0 0 2.39-2.61z" fill="#e58073"/><path d="m368 83.29-5.95 47.63a18.693 18.693 0 0 1 -18.55 16.37h-4.62a18.693 18.693 0 0 1 -18.55-16.37 43.7 43.7 0 0 1 -.33-5.33 42.417 42.417 0 0 1 30.24-40.54l-4.42 4.42a19.27 19.27 0 0 0 -3.61 22.24 6.551 6.551 0 0 0 2.39 2.61 6.444 6.444 0 0 0 6.8 0 6.551 6.551 0 0 0 2.39-2.61z" fill="#f08977"/><path d="m447.179 191.7-23.179 11.589v16l31.468-15.734a29.906 29.906 0 0 0 16.532-26.749v-45.517h-16v46.138a15.957 15.957 0 0 1 -8.821 14.273z" fill="#e58073"/><path d="m490.38 125.59a43.7 43.7 0 0 1 -.33 5.33 18.693 18.693 0 0 1 -18.55 16.37h-15a18.693 18.693 0 0 1 -18.55-16.37l-5.95-47.63 10.66 21.33 3.55 7.09a6.551 6.551 0 0 0 2.39 2.61 6.444 6.444 0 0 0 6.8 0 6.551 6.551 0 0 0 2.39-2.61 19.27 19.27 0 0 0 -3.61-22.24l-6.18-6.18a42.383 42.383 0 0 1 42.38 42.3z" fill="#e58073"/><path d="m490.38 125.59a43.7 43.7 0 0 1 -.33 5.33 18.693 18.693 0 0 1 -18.55 16.37h-7a18.693 18.693 0 0 1 -18.55-16.37l-3.29-26.3 3.55 7.09a6.551 6.551 0 0 0 2.39 2.61 6.444 6.444 0 0 0 6.8 0 6.551 6.551 0 0 0 2.39-2.61 19.27 19.27 0 0 0 -3.61-22.24l-6.18-6.18a42.383 42.383 0 0 1 42.38 42.3z" fill="#f08977"/><path d="m438.82 216.22-6.82 75.07h-64l-6.82-75.07a32.234 32.234 0 0 1 6.93-23.07l18.89-23.61a16.653 16.653 0 0 1 20.21-4.61 13.846 13.846 0 0 1 1.31.71 16.326 16.326 0 0 1 4.48 3.9l18.89 23.61a32.234 32.234 0 0 1 6.93 23.07z" fill="#e58073"/><path d="m432 291.29-1.67 20-.66 8-1.34 16-.66 8-1.34 16-.66 8-.37 4.42a17 17 0 0 1 -16.78 15.58h-.06a17.008 17.008 0 0 1 -16.72-15.58l-.37-4.42-.66-8-1.34-16-.66-8-1.34-16-.66-8-1.67-20z" fill="#f08977"/><path d="m438.82 216.22-6.82 75.07h-46.96l-6.82-75.07a32.2 32.2 0 0 1 6.94-23.07l18.89-23.61a16.308 16.308 0 0 1 4.47-3.9 16.326 16.326 0 0 1 4.48 3.9l18.89 23.61a32.234 32.234 0 0 1 6.93 23.07z" fill="#f08977"/><circle cx="376" cy="179.289" fill="#e5646e" r="8"/><circle cx="424" cy="179.289" fill="#e5646e" r="8"/><path d="m286.51 278.27-.19.96a15.207 15.207 0 0 1 -14.91 12.22h-55.07a15.207 15.207 0 0 1 -14.91-12.22 220.987 220.987 0 0 1 13.93-131.2l17.89-41.27a12.126 12.126 0 0 1 17.83-5.29 12.347 12.347 0 0 1 2.73 2.48 12.075 12.075 0 0 1 1.74 2.9l17.74 41.86a220.973 220.973 0 0 1 13.22 129.56z" fill="#c1c1c1"/><path d="m286.51 278.27-.19.96a15.207 15.207 0 0 1 -14.91 12.22h-36.21a15.207 15.207 0 0 1 -14.91-12.22 220.987 220.987 0 0 1 13.93-131.2l17.88-41.27a11.606 11.606 0 0 1 1.71-2.81 12.075 12.075 0 0 1 1.74 2.9l17.74 41.86a220.973 220.973 0 0 1 13.22 129.56z" fill="#ccc"/><path d="m53.957 170.478h37.932a0 0 0 0 1 0 0v132.916a0 0 0 0 1 0 0h-11.059a59.83 59.83 0 0 1 -59.83-59.83v-40.129a32.957 32.957 0 0 1 32.957-32.957z" fill="#d2af8c"/><path d="m138.53 407.02a77.864 77.864 0 0 1 -57.84 0 18.969 18.969 0 0 1 -11.36-22.23l13.7-54.81 28.97-25.98 10.25 11.01 13.94 14.97 13.71 54.81a18.989 18.989 0 0 1 -11.37 22.23z" fill="#c9a789"/><path d="m138.53 407.02a77.529 77.529 0 0 1 -17.65 4.75 77.334 77.334 0 0 1 -17.66-4.75 18.969 18.969 0 0 1 -11.36-22.23l13.7-54.81 16.69-14.97 13.94 14.97 13.71 54.81a18.989 18.989 0 0 1 -11.37 22.23z" fill="#d2af8c"/><path d="m161.47 202.23a329.02 329.02 0 0 1 -19.17 110.66l-6.11 17.09h-53.16l-24.53-68.69a163.115 163.115 0 0 1 .32-110.62 122.539 122.539 0 0 1 54.35-64.51 21.569 21.569 0 0 1 10.75-2.87 21.946 21.946 0 0 1 11.3 3.15 21.586 21.586 0 0 1 9.36 11.72 328.713 328.713 0 0 1 12.81 52.44q.645 4.065 1.19 8.14a328.063 328.063 0 0 1 2.89 43.49z" fill="#e2cbac"/><path d="m161.47 202.23a329.02 329.02 0 0 1 -19.17 110.66l-6.11 17.09h-30.63l-24.53-68.69a163.115 163.115 0 0 1 .32-110.62 122.509 122.509 0 0 1 53.87-64.23 21.586 21.586 0 0 1 9.36 11.72 328.713 328.713 0 0 1 12.81 52.44q.645 4.065 1.19 8.14a328.063 328.063 0 0 1 2.89 43.49z" fill="#f4dbb4"/><circle cx="109.861" cy="124.15" fill="#f08977" r="8.861"/><path d="m119.736 223.644h-11.389a5.932 5.932 0 0 1 -5.755-7.37l5.944-23.776a5.675 5.675 0 0 1 5.5-4.3 5.674 5.674 0 0 1 5.505 4.3l5.944 23.776a5.931 5.931 0 0 1 -5.749 7.37z" fill="#d2af8c"/><g fill="#333"><path d="m109.861 137.011a12.861 12.861 0 1 0 -12.861-12.861 12.876 12.876 0 0 0 12.861 12.861zm0-17.722a4.861 4.861 0 1 1 -4.861 4.861 4.867 4.867 0 0 1 4.861-4.861z"/><path d="m108.347 227.645h11.389a9.933 9.933 0 0 0 9.635-12.341l-5.943-23.776a9.676 9.676 0 0 0 -18.773 0l-5.944 23.777a9.933 9.933 0 0 0 9.636 12.34zm-1.874-10.4 5.944-23.776a1.674 1.674 0 0 1 3.249 0l5.943 23.776a1.931 1.931 0 0 1 -1.873 2.4h-11.389a1.931 1.931 0 0 1 -1.874-2.4z"/><path d="m140.369 330.181 5.693-15.944a334.537 334.537 0 0 0 2.313-217.337 25.74 25.74 0 0 0 -37.19-14.21 126.653 126.653 0 0 0 -56.128 66.61 166.262 166.262 0 0 0 -5.274 17.417 36.748 36.748 0 0 0 -32.783 36.723v40.12a63.887 63.887 0 0 0 53.408 62.974l8.445 23.647-13.409 53.635a23.073 23.073 0 0 0 13.765 26.919 81.51 81.51 0 0 0 60.8 0 23.072 23.072 0 0 0 13.764-26.919zm-77.795-178.148a118.651 118.651 0 0 1 52.579-62.4 17.74 17.74 0 0 1 25.632 9.794 322.849 322.849 0 0 1 12.752 52.718l-6.884 2.748a56.729 56.729 0 0 1 -52.545-5.465 4 4 0 0 0 -4.437 6.657 64.722 64.722 0 0 0 59.952 6.237l5.06-2.02a326.484 326.484 0 0 1 -16.154 151.241l-5.154 14.432h-47.528l-23.583-66.028a159.486 159.486 0 0 1 .31-107.914zm-37.574 91.527v-40.12a28.788 28.788 0 0 1 22.975-28.34 167.524 167.524 0 0 0 6.755 87.542l12.529 35.081a55.9 55.9 0 0 1 -42.259-54.163zm112.042 159.748a73.542 73.542 0 0 1 -54.862 0 15.043 15.043 0 0 1 -8.974-17.552l12.945-51.778h9.475l-7.618 30.474a4 4 0 1 0 7.762 1.94l8.1-32.414h1.736v40.305a4 4 0 0 0 8 0v-40.305h1.738l8.1 32.414a4 4 0 0 0 7.762-1.94l-7.606-30.474h9.476l12.945 51.778a15.044 15.044 0 0 1 -8.979 17.552z"/><path d="m317.79 351.45h-.33a18.805 18.805 0 0 1 -18.119-13.479l-14.428-48.1c4.489-3.219 5.523-10.822 5.523-10.822a224.057 224.057 0 0 0 -1.8-96.529 26 26 0 0 0 14.2-40.158l-37.28-52.19a25.7 25.7 0 0 0 -21.145-10.882 25.7 25.7 0 0 0 -21.145 10.885l-37.281 52.191a26.012 26.012 0 0 0 13.594 39.983 223.92 223.92 0 0 0 -2.068 97.662 19.138 19.138 0 0 0 6.167 10.629l-14.2 47.33a19.036 19.036 0 0 1 -18.109 13.48h-.47a6.164 6.164 0 0 0 -3.705 11.087l.214.156c.053.044.107.086.161.128a29.976 29.976 0 0 0 45.531-12.163q.182-.425.364-.848l-.8 7.168a87.823 87.823 0 0 1 -32.653 59.266 6.554 6.554 0 0 0 -2.471 5.1 6.744 6.744 0 0 0 2.672 5.36 6.44 6.44 0 0 0 3.888 1.296 6.746 6.746 0 0 0 1.866-.265 76.8 76.8 0 0 0 54.475-60.121l3.965-21.8 3.964 21.8a76.316 76.316 0 0 0 54.4 60.1 6.557 6.557 0 0 0 8.127-4.148 6.528 6.528 0 0 0 -2.111-7.338 88.349 88.349 0 0 1 -32.621-59.248l-.8-7.145.354.824a29.967 29.967 0 0 0 45.56 12.136l.22-.169a6.2 6.2 0 0 0 -3.715-11.174zm-127.1-186.7a17.8 17.8 0 0 1 1.806-17.735l37.279-52.19a17.981 17.981 0 0 1 29.271 0l37.28 52.19a18.006 18.006 0 0 1 -9.695 27.764 226.5 226.5 0 0 0 -9.659-27.63l-17.742-41.863a16.133 16.133 0 0 0 -29.655-.119l-17.885 41.272a226.766 226.766 0 0 0 -10.065 28.175 17.808 17.808 0 0 1 -10.936-9.864zm28.341-15.13 17.885-41.272a8.133 8.133 0 0 1 14.95.06l17.74 41.863a216.107 216.107 0 0 1 12.987 127.21s-3.269 9.662-11.18 9.969h-55.07a11.236 11.236 0 0 1 -10.988-9.008 215.994 215.994 0 0 1 13.675-128.822zm78.569 210.452a21.846 21.846 0 0 1 -14.524-12.572l-10.99-25.63a4 4 0 0 0 -7.651 2.019l3.78 33.967a96.383 96.383 0 0 0 30.085 59.886 68.332 68.332 0 0 1 -42.059-51.557l-7.9-43.45a4 4 0 0 0 -7.871 0l-7.9 43.451a68.793 68.793 0 0 1 -42.036 51.539 95.672 95.672 0 0 0 30.077-59.863l3.771-33.969a4 4 0 0 0 -7.653-2.017s-5.339 12.469-10.989 25.628a21.988 21.988 0 0 1 -29.125 11.42 27.128 27.128 0 0 0 20.522-18.653l13.693-45.648a19.032 19.032 0 0 0 5.508.828h55.07a19.072 19.072 0 0 0 6.481-1.136l13.786 45.957a26.727 26.727 0 0 0 20.5 18.667 21.82 21.82 0 0 1 -14.575 1.133z"/><path d="m442.933 214.291 14.324-7.163a33.7 33.7 0 0 0 18.743-30.318v-25.983a22.729 22.729 0 0 0 18.015-19.412 46.373 46.373 0 0 0 -46.015-52.126 4 4 0 0 0 -2.828 6.829l6.18 6.178a15.253 15.253 0 0 1 2.86 17.626 2.472 2.472 0 0 1 -4.423 0l-14.211-28.422a4 4 0 0 0 -7.547 2.285l5.954 47.63a22.727 22.727 0 0 0 18.015 19.411v26.6a11.88 11.88 0 0 1 -6.61 10.693l-8.936 4.472c-.46-.66-.935-1.311-1.441-1.945l-2.411-3.012a11.982 11.982 0 0 0 -14.858-18.57l-1.618-2.024a20.775 20.775 0 0 0 -1.463-1.631l13.051-32.638a4 4 0 0 0 -7.428-2.97l-12.413 31.043a20.775 20.775 0 0 0 -7.873-1.554 20.538 20.538 0 0 0 -7.872 1.56l-12.414-31.045a4 4 0 1 0 -7.428 2.97l13.051 32.638a20.915 20.915 0 0 0 -1.462 1.629l-1.619 2.026a11.983 11.983 0 0 0 -14.858 18.57l-2.411 3.013c-.506.633-.981 1.284-1.441 1.944l-8.94-4.474a11.878 11.878 0 0 1 -6.606-10.691v-26.6a22.729 22.729 0 0 0 18.015-19.412l5.954-47.63a4 4 0 0 0 -7.547-2.285l-14.21 28.422a2.473 2.473 0 0 1 -4.423 0 15.251 15.251 0 0 1 2.859-17.625l6.18-6.179a4 4 0 0 0 -2.828-6.832 46.373 46.373 0 0 0 -46.015 52.126 22.727 22.727 0 0 0 18.015 19.411v25.984a33.7 33.7 0 0 0 18.741 30.317l14.326 7.164c.022.762.059 1.526.129 2.291l1.804 19.818-25.722-4.289 6.52-19.559a4 4 0 0 0 -7.59-2.53l-8 24a4 4 0 0 0 3.137 5.21l32.4 5.4 1.16 12.769-38.166 5.451-6.939-20.827a4 4 0 1 0 -7.59 2.53l8 24a4 4 0 0 0 3.79 2.736c.189 0 41.633-5.906 41.633-5.906l1.195 13.149-26.2 15.719-13.792-13.792a4 4 0 0 0 -5.656 5.658l16 16a4 4 0 0 0 4.886.6l25.57-15.339 7.088 84.665a20.591 20.591 0 0 0 .367 2.437l-23.369 32.723a10.17 10.17 0 0 0 8.276 16.084h16.69a31.116 31.116 0 0 0 22.148-9.171l5.164-5.171 5.172 5.172a31.116 31.116 0 0 0 22.148 9.171h16.69a10.17 10.17 0 0 0 8.275-16.085l-23.368-32.722a20.591 20.591 0 0 0 .367-2.437l7.088-84.665 25.57 15.339a4 4 0 0 0 4.886-.6l16-16a4 4 0 0 0 -5.656-5.658l-13.792 13.791-26.2-15.719 1.195-13.149s41.444 5.906 41.633 5.906a4 4 0 0 0 3.792-2.736l8-24a4 4 0 0 0 -7.59-2.53l-6.944 20.833-38.166-5.451 1.16-12.769 32.4-5.4a4 4 0 0 0 3.137-5.21l-8-24a4 4 0 0 0 -7.59 2.53l6.52 19.559-25.727 4.283 1.8-19.818c.074-.763.111-1.528.133-2.291zm-64.585 153h43.3l-.34 4.092a13.062 13.062 0 0 1 -12.941 11.907h-16.738a13.062 13.062 0 0 1 -12.941-11.907zm43.971-8h-44.638l-1.333-16h47.3zm2-24h-48.638l-1.333-16h51.3zm-50.638-24-1.333-16h55.3l-1.333 16zm68.242-180.868-3.057-24.457 3.768 7.536a10.472 10.472 0 0 0 18.733 0 23.239 23.239 0 0 0 -2.367-24.602 38.37 38.37 0 0 1 27.082 41.523 14.711 14.711 0 0 1 -14.582 12.866h-15a14.711 14.711 0 0 1 -14.577-12.867zm7.043 64.857a19.835 19.835 0 0 0 11.034-17.85v-26.141h8v25.521a25.744 25.744 0 0 1 -14.319 23.162l-11.519 5.76a35.852 35.852 0 0 0 -1.872-6.111zm-24.966-19.991a4 4 0 1 1 -4 4 4 4 0 0 1 4-4zm-18.5-6.743a12.229 12.229 0 0 1 2.022 1.22 12.592 12.592 0 0 1 2.354 2.272l2.754 3.445a11.976 11.976 0 0 0 11.37 15.806 12.13 12.13 0 0 0 1.227-.062l3.54 4.422a28.1 28.1 0 0 1 6.07 20.209l-6.49 71.431h-56.694l-6.49-71.434a28.1 28.1 0 0 1 6.07-20.206l3.54-4.422a12.145 12.145 0 0 0 1.227.062 11.976 11.976 0 0 0 11.371-15.806l2.755-3.447a12.651 12.651 0 0 1 15.373-3.49zm-29.5 6.743a4 4 0 1 1 -4 4 4 4 0 0 1 4-4zm-62.077-44.867a38.37 38.37 0 0 1 27.082-41.522 23.238 23.238 0 0 0 -2.371 24.6 10.472 10.472 0 0 0 18.733 0l3.767-7.535-3.057 24.457a14.711 14.711 0 0 1 -14.577 12.867h-15a14.711 14.711 0 0 1 -14.577-12.867zm18.077 46.388v-25.521h8v26.141a19.833 19.833 0 0 0 11.03 17.847l8.68 4.343a35.89 35.89 0 0 0 -1.872 6.112l-11.521-5.761a25.743 25.743 0 0 1 -14.317-23.161zm113.774 235.044a2.17 2.17 0 0 1 -1.764 3.436h-16.69a23.168 23.168 0 0 1 -16.492-6.829l-8-8a4 4 0 0 0 -5.656 0l-8 8a23.168 23.168 0 0 1 -16.492 6.829h-16.69a2.171 2.171 0 0 1 -1.765-3.436l20.675-28.948a21.054 21.054 0 0 0 16.731 8.383h16.742a21.054 21.054 0 0 0 16.731-8.383z"/></g></g></svg>